<!-- A sprite that contains all SVG files -->
<svg xmlns="http://www.w3.org/2000/svg" xmlns:xlink="http://www.w3.org/1999/xlink">
  <defs>
    <symbol id="triangle" xmlns="http://www.w3.org/2000/svg"><polygon strokeWidth="1px" strokeLinejoin="round" strokeMiterlimit="10" points="14.921,2.27 28.667,25.5 1.175,25.5" /></symbol>
    <symbol id="circle" xmlns="http://www.w3.org/2000/svg"><path d="M15,30A15,15,0,1,1,30,15,15,15,0,0,1,15,30ZM15,6.23A8.77,8.77,0,1,0,23.77,15,8.77,8.77,0,0,0,15,6.23Z" /></symbol>
    <symbol id="arrowUp" xmlns="http://www.w3.org/2000/svg"><path d="M28.74,20.81H1.26a1.26,1.26,0,0,1-1-2L14.16.5a1.25,1.25,0,0,1,1-.5h0a1.24,1.24,0,0,1,1,.51L29.75,18.8a1.25,1.25,0,0,1-1,2ZM3.81,18.29H26.22L15.16,3.37Z" /><path d="M28.74,42H1.26a1.28,1.28,0,0,1-1.13-.71A1.26,1.26,0,0,1,.26,40l13.9-18.29a1.28,1.28,0,0,1,1-.5h0a1.24,1.24,0,0,1,1,.51L29.75,40a1.26,1.26,0,0,1,.12,1.32A1.28,1.28,0,0,1,28.74,42ZM3.81,39.47H26.22L15.16,24.55Z" /></symbol>
    <symbol id="upDown" xmlns="http://www.w3.org/2000/svg"><path d="M28.74,44.58a1.28,1.28,0,0,1-1-.51L15.16,27.13l-12.89,17a1.26,1.26,0,1,1-2-1.53l13.9-18.29a1.34,1.34,0,0,1,1-.5,1.24,1.24,0,0,1,1,.51L29.75,42.56a1.27,1.27,0,0,1-1,2Z" /><path d="M14.83,20.82h0a1.28,1.28,0,0,1-1-.52L.25,2a1.27,1.27,0,0,1,2-1.51L14.84,17.45,27.73.5a1.26,1.26,0,0,1,2,1.53L15.84,20.32A1.28,1.28,0,0,1,14.83,20.82Z" /></symbol>
    <symbol id="box" xmlns="http://www.w3.org/2000/svg"><path d="M28,2V28H2V2H28m.13-2H1.88A1.88,1.88,0,0,0,0,1.88V28.13A1.88,1.88,0,0,0,1.88,30H28.13A1.87,1.87,0,0,0,30,28.13V1.88A1.88,1.88,0,0,0,28.13,0Z" /></symbol>
    <symbol id="hexa" xmlns="http://www.w3.org/2000/svg"><polygon strokeLinejoin="round" strokeMiterlimit="10" points="27.5,21.904 15,28.809  2.5,21.904 2.5,8.095 15,1.19 27.5,8.095" /></symbol>
    <symbol id="cross" xmlns="http://www.w3.org/2000/svg"><path strokeWidth="3px" d="M60.5,50l34.8-34.8c2.9-2.9,2.9-7.6,0-10.5c-2.9-2.9-7.6-2.9-10.5,0L50,39.5L15.2,4.7c-2.9-2.9-7.6-2.9-10.5,0    c-2.9,2.9-2.9,7.6,0,10.5L39.5,50L4.7,84.8c-2.9,2.9-2.9,7.6,0,10.5c1.4,1.4,3.3,2.2,5.2,2.2s3.8-0.7,5.2-2.2L50,60.5l34.8,34.8    c1.4,1.4,3.3,2.2,5.2,2.2c1.9,0,3.8-0.7,5.2-2.2c2.9-2.9,2.9-7.6,0-10.5L60.5,50z" /></symbol>
    <symbol id="heart-regular" xmlns="http://www.w3.org/2000/svg"  viewBox="0 0 512 512"><path  d="M225.8 468.2l-2.5-2.3L48.1 303.2C17.4 274.7 0 234.7 0 192.8v-3.3c0-70.4 50-130.8 119.2-144C158.6 37.9 198.9 47 231 69.6c9 6.4 17.4 13.8 25 22.3c4.2-4.8 8.7-9.2 13.5-13.3c3.7-3.2 7.5-6.2 11.5-9c0 0 0 0 0 0C313.1 47 353.4 37.9 392.8 45.4C462 58.6 512 119.1 512 189.5v3.3c0 41.9-17.4 81.9-48.1 110.4L288.7 465.9l-2.5 2.3c-8.2 7.6-19 11.9-30.2 11.9s-22-4.2-30.2-11.9zM239.1 145c-.4-.3-.7-.7-1-1.1l-17.8-20c0 0-.1-.1-.1-.1c0 0 0 0 0 0c-23.1-25.9-58-37.7-92-31.2C81.6 101.5 48 142.1 48 189.5v3.3c0 28.5 11.9 55.8 32.8 75.2L256 430.7 431.2 268c20.9-19.4 32.8-46.7 32.8-75.2v-3.3c0-47.3-33.6-88-80.1-96.9c-34-6.5-69 5.4-92 31.2c0 0 0 0-.1 .1s0 0-.1 .1l-17.8 20c-.3 .4-.7 .7-1 1.1c-4.5 4.5-10.6 7-16.9 7s-12.4-2.5-16.9-7z" /></symbol>
    <symbol id="heart-solid" xmlns="http://www.w3.org/2000/svg"  viewBox="0 0 512 512"><path  d="M47.6 300.4L228.3 469.1c7.5 7 17.4 10.9 27.7 10.9s20.2-3.9 27.7-10.9L464.4 300.4c30.4-28.3 47.6-68 47.6-109.5v-5.8c0-69.9-50.5-129.5-119.4-141C347 36.5 300.6 51.4 268 84L256 96 244 84c-32.6-32.6-79-47.5-124.6-39.9C50.5 55.6 0 115.2 0 185.1v5.8c0 41.5 17.2 81.2 47.6 109.5z" /></symbol>
    <symbol id="star-of-life-solid" xmlns="http://www.w3.org/2000/svg"  viewBox="0 0 512 512"><path  d="M208 32c0-17.7 14.3-32 32-32h32c17.7 0 32 14.3 32 32V172.9l122-70.4c15.3-8.8 34.9-3.6 43.7 11.7l16 27.7c8.8 15.3 3.6 34.9-11.7 43.7L352 256l122 70.4c15.3 8.8 20.5 28.4 11.7 43.7l-16 27.7c-8.8 15.3-28.4 20.6-43.7 11.7L304 339.1V480c0 17.7-14.3 32-32 32H240c-17.7 0-32-14.3-32-32V339.1L86 409.6c-15.3 8.8-34.9 3.6-43.7-11.7l-16-27.7c-8.8-15.3-3.6-34.9 11.7-43.7L160 256 38 185.6c-15.3-8.8-20.5-28.4-11.7-43.7l16-27.7C51.1 98.8 70.7 93.6 86 102.4l122 70.4V32z" /></symbol>
    <symbol id="heart-rough" xmlns="http://www.w3.org/2000/svg"  viewBox="0 0 168 128" fill="none"><path  d="M76.841 105.95C65.86 105.95 -8.10184 55.0225 5.71275 44.6616C21.3792 32.9117 41.9598 22.4516 61.6595 22.4516C72.2722 22.4516 79.281 31.936 82.8855 41.1473C83.3254 42.2715 86.0053 53.3647 88.5082 52.2523C105.245 44.8139 107.977 15.1845 126.884 7.27005C139.893 1.82438 153.99 2.14493 159.074 16.2665C169.584 45.4603 161.59 74.1898 137.567 93.2986C122.202 105.521 95.118 123.662 74.3107 123.662" stroke-width="8" stroke-linecap="round" /></symbol>
    <symbol id="snowflake" xmlns="http://www.w3.org/2000/svg"  viewBox="0 0 448 512"><path  d="M224 0c13.3 0 24 10.7 24 24V70.1l23-23c9.4-9.4 24.6-9.4 33.9 0s9.4 24.6 0 33.9l-57 57v76.5l66.2-38.2 20.9-77.8c3.4-12.8 16.6-20.4 29.4-17s20.4 16.6 17 29.4L373 142.2l37.1-21.4c11.5-6.6 26.2-2.7 32.8 8.8s2.7 26.2-8.8 32.8L397 183.8l31.5 8.4c12.8 3.4 20.4 16.6 17 29.4s-16.6 20.4-29.4 17l-77.8-20.9L272 256l66.2 38.2 77.8-20.9c12.8-3.4 26 4.2 29.4 17s-4.2 26-17 29.4L397 328.2l37.1 21.4c11.5 6.6 15.4 21.3 8.8 32.8s-21.3 15.4-32.8 8.8L373 369.8l8.4 31.5c3.4 12.8-4.2 26-17 29.4s-26-4.2-29.4-17l-20.9-77.8L248 297.6v76.5l57 57c9.4 9.4 9.4 24.6 0 33.9s-24.6 9.4-33.9 0l-23-23V488c0 13.3-10.7 24-24 24s-24-10.7-24-24V441.9l-23 23c-9.4 9.4-24.6 9.4-33.9 0s-9.4-24.6 0-33.9l57-57V297.6l-66.2 38.2-20.9 77.8c-3.4 12.8-16.6 20.4-29.4 17s-20.4-16.6-17-29.4L75 369.8 37.9 391.2c-11.5 6.6-26.2 2.7-32.8-8.8s-2.7-26.2 8.8-32.8L51 328.2l-31.5-8.4c-12.8-3.4-20.4-16.6-17-29.4s16.6-20.4 29.4-17l77.8 20.9L176 256l-66.2-38.2L31.9 238.6c-12.8 3.4-26-4.2-29.4-17s4.2-26 17-29.4L51 183.8 13.9 162.4c-11.5-6.6-15.4-21.3-8.8-32.8s21.3-15.4 32.8-8.8L75 142.2l-8.4-31.5c-3.4-12.8 4.2-26 17-29.4s26 4.2 29.4 17l20.9 77.8L200 214.4V137.9L143 81c-9.4-9.4-9.4-24.6 0-33.9s24.6-9.4 33.9 0l23 23V24c0-13.3 10.7-24 24-24z" /></symbol>
  </defs>
</svg>
